<?xml version="1.0" standalone="no"?>
<!DOCTYPE svg PUBLIC "-//W3C//DTD SVG 20010904//EN"
 "http://www.w3.org/TR/2001/REC-SVG-20010904/DTD/svg10.dtd">
<svg version="1.0" xmlns="http://www.w3.org/2000/svg"
 width="636.000000pt" height="475.000000pt" viewBox="0 0 636.000000 475.000000"
 preserveAspectRatio="xMidYMid meet">
<metadata>
Created by potrace 1.12, written by Peter Selinger 2001-2015
</metadata>
<g transform="translate(0.000000,475.000000) scale(0.100000,-0.100000)"
fill="#000000" stroke="none">
<path d="M1030 4688 c-35 -47 -44 -79 -60 -203 -6 -49 -23 -139 -36 -200 -13
-60 -30 -139 -37 -174 -6 -36 -18 -66 -25 -69 -11 -3 -13 16 -9 104 6 130 14
249 23 324 9 79 8 100 -5 147 -14 53 -73 87 -124 72 -70 -19 -95 -84 -101
-264 -5 -145 -26 -428 -33 -435 -14 -14 -21 40 -25 194 -3 111 -9 180 -18 196
-37 73 -86 89 -139 45 -47 -41 -51 -67 -47 -335 4 -250 17 -434 36 -512 6 -24
15 -59 19 -78 4 -19 13 -45 20 -57 6 -13 10 -23 7 -23 -3 0 4 -21 15 -46 26
-59 20 -74 -29 -74 -51 0 -63 -16 -67 -87 -2 -32 -10 -96 -18 -143 -7 -47 -11
-104 -9 -127 4 -47 6 -48 112 -58 65 -7 216 -37 277 -56 18 -6 81 -14 140 -19
59 -5 128 -12 153 -16 42 -6 45 -5 47 17 1 13 4 47 7 74 35 290 35 292 -24
301 -76 12 -41 52 82 95 46 16 91 29 100 29 26 0 79 63 158 185 25 39 129 128
194 166 113 65 138 149 68 224 l-37 40 -90 0 c-78 -1 -97 -4 -140 -27 -27 -15
-63 -40 -79 -57 -39 -40 -50 -39 -26 2 10 17 24 55 30 82 7 28 21 68 31 91 11
22 19 47 19 56 0 8 11 31 24 50 13 19 31 58 40 86 10 29 22 54 27 57 5 4 9 14
9 24 0 9 10 37 22 62 28 57 31 153 6 192 -24 36 -86 54 -124 36 -35 -17 -76
-76 -104 -149 -43 -110 -62 -156 -81 -192 -10 -20 -19 -50 -19 -66 0 -16 -8
-40 -17 -53 -28 -38 -43 -67 -43 -84 0 -21 -30 -19 -31 3 -1 9 0 22 1 27 1 6
11 51 22 100 10 50 23 106 28 125 22 87 60 228 69 260 22 73 5 159 -34 174 -9
3 -41 6 -71 6 -52 0 -55 -2 -84 -42z m132 -5 c27 -24 23 -82 -18 -223 -52
-185 -96 -375 -96 -413 2 -48 65 -93 100 -71 8 5 22 31 33 58 10 26 25 56 34
66 9 10 19 35 22 56 3 22 9 44 13 49 5 6 13 26 18 45 13 43 72 185 94 225 26
48 52 67 82 59 15 -3 31 -15 37 -27 12 -22 6 -112 -9 -131 -5 -6 -13 -22 -17
-36 -4 -14 -21 -56 -38 -95 -64 -148 -79 -181 -95 -214 -9 -19 -17 -37 -18
-40 -6 -44 -22 -96 -44 -141 -15 -30 -30 -62 -32 -70 -3 -9 -18 -15 -39 -16
-56 -3 -122 -16 -151 -30 -15 -8 -36 -14 -46 -14 -25 0 -91 -53 -109 -87 -12
-22 -12 -29 0 -40 12 -12 20 -7 57 33 27 29 56 50 79 56 64 17 145 30 198 32
54 2 56 3 143 81 66 60 133 89 202 89 47 0 63 -5 83 -24 34 -32 38 -52 21 -93
-11 -27 -27 -41 -72 -63 -74 -36 -184 -139 -242 -228 -71 -108 -88 -122 -167
-142 -38 -9 -77 -21 -85 -25 -8 -5 -27 -13 -42 -19 -24 -8 -59 -51 -71 -85 -3
-6 -17 -5 -38 4 -19 7 -57 15 -84 16 -28 2 -63 8 -78 14 -16 6 -41 11 -57 11
-16 0 -32 5 -35 10 -3 6 -24 10 -45 10 -21 0 -42 5 -45 10 -4 6 -16 10 -28 8
-18 -2 -21 1 -19 19 3 23 -34 140 -50 158 -4 5 -8 20 -8 33 0 13 -5 33 -11 44
-11 21 -13 30 -23 118 -21 172 -26 241 -26 365 0 77 -1 182 -1 234 -1 83 2 96
22 117 12 13 31 24 40 24 37 0 47 -46 51 -228 4 -201 13 -235 65 -240 51 -5
62 22 67 176 3 73 8 137 11 142 4 6 8 79 10 163 3 166 10 197 51 223 23 16 29
16 52 3 30 -17 45 -61 37 -109 -4 -19 -9 -82 -11 -140 -3 -58 -9 -118 -14
-135 -5 -16 -9 -76 -10 -133 l0 -103 36 -15 c31 -13 39 -13 58 -1 23 16 46 75
46 121 0 15 11 72 25 128 24 92 48 236 48 283 0 38 28 110 55 138 29 31 57 34
84 10z m-645 -1438 c12 -8 32 -15 45 -15 55 -1 100 -8 121 -17 24 -12 131 -32
187 -37 19 -1 44 -7 55 -13 11 -6 51 -14 89 -18 l68 -7 -7 -66 c-4 -37 -8 -97
-10 -133 -1 -36 -8 -75 -15 -86 -12 -19 -16 -20 -64 -7 -28 8 -80 14 -115 14
-35 0 -114 11 -175 25 -98 22 -229 44 -262 45 -20 0 -23 39 -7 123 8 45 16 98
17 117 1 19 3 45 4 57 2 18 10 25 42 32 3 0 15 -6 27 -14z"/>
<path d="M2610 4715 c-7 -8 -16 -30 -19 -48 -5 -21 -14 -33 -26 -35 -11 -2
-30 -16 -41 -30 -20 -24 -24 -25 -49 -14 -46 21 -79 -25 -35 -48 11 -6 20 -16
20 -24 0 -21 -43 -51 -74 -51 -16 0 -33 -7 -39 -16 -15 -24 -1 -49 28 -49 20
0 25 -5 25 -24 0 -19 -6 -25 -27 -28 -21 -2 -29 -9 -31 -26 -3 -22 -1 -24 40
-20 38 3 43 0 46 -19 2 -12 10 -27 18 -33 8 -7 14 -27 14 -46 0 -40 31 -55 60
-29 24 21 27 13 29 -64 1 -46 -3 -69 -15 -82 -16 -18 -34 -109 -39 -199 -1
-30 -6 -67 -10 -82 -9 -34 6 -37 42 -8 14 11 32 20 39 20 19 0 49 19 85 51 15
15 42 29 58 32 16 3 40 17 53 30 14 14 42 31 64 38 21 7 46 21 55 29 9 9 54
36 100 60 46 24 91 52 100 62 9 10 32 21 50 24 42 8 85 30 122 60 15 13 45 28
67 34 21 6 40 14 42 18 6 13 106 62 127 62 12 0 24 7 27 15 4 9 20 15 43 15
48 1 112 16 120 29 4 6 32 19 61 30 30 10 73 26 95 35 22 8 58 16 80 16 60 2
135 52 88 59 -10 2 -38 2 -62 2 -24 0 -60 8 -82 19 -21 11 -53 20 -71 20 -18
0 -49 5 -68 10 -24 7 -43 7 -62 -1 -21 -9 -36 -7 -72 6 l-45 17 -66 -31 c-61
-30 -73 -32 -153 -30 -52 2 -95 -2 -108 -9 -17 -9 -35 -9 -78 0 -45 10 -63 10
-89 -1 -17 -7 -50 -17 -72 -21 -22 -4 -48 -11 -57 -15 -32 -13 -21 28 12 47
38 22 38 37 0 45 -17 3 -30 12 -30 20 0 8 -7 22 -16 30 -15 15 -14 18 7 33 14
11 20 23 16 34 -10 26 -35 30 -70 11 -41 -21 -81 -17 -85 10 -2 11 -8 24 -12
28 -11 12 -50 -11 -50 -29 0 -10 -8 -14 -22 -12 -18 2 -23 9 -23 35 0 41 -17
60 -35 38z m144 -150 c8 -42 16 -43 52 -10 27 25 54 33 54 15 0 -5 -9 -35 -21
-66 -15 -41 -18 -59 -10 -67 6 -6 11 -14 11 -18 0 -11 -112 -79 -131 -79 -9 0
-29 -16 -45 -35 -23 -29 -34 -35 -63 -34 -73 3 -95 12 -102 44 -4 17 -11 40
-14 53 -5 14 -3 22 4 22 6 0 11 9 11 20 0 15 -7 20 -25 20 -14 0 -25 6 -25 13
0 17 52 36 84 30 21 -4 26 -1 26 15 0 11 -7 25 -15 32 -21 18 -19 40 4 40 11
0 22 4 25 9 7 10 96 9 112 -2 6 -3 18 3 27 14 24 27 34 24 41 -16z m832 -102
c22 -14 33 -15 69 -5 33 9 57 9 99 0 31 -7 56 -15 56 -18 0 -10 -62 -40 -84
-40 -13 0 -41 -12 -62 -27 -32 -21 -49 -26 -95 -25 -45 1 -60 -2 -74 -18 -10
-11 -28 -20 -40 -20 -12 0 -34 -9 -48 -20 -14 -12 -59 -36 -99 -54 -40 -19
-88 -46 -107 -60 -19 -14 -43 -26 -53 -26 -21 0 -94 -35 -102 -49 -8 -12 -83
-51 -99 -51 -7 0 -32 -18 -56 -40 -29 -26 -54 -40 -71 -40 -25 0 -71 -27 -95
-57 -11 -14 -91 -43 -118 -43 -9 0 -26 -5 -37 -12 -27 -17 -34 -5 -21 33 6 18
11 48 11 68 0 44 14 61 50 61 14 0 50 16 80 35 30 19 67 39 83 46 23 9 27 17
27 50 0 21 -4 39 -10 39 -5 0 -10 -16 -10 -35 0 -28 -4 -35 -20 -35 -11 0 -20
6 -20 14 0 8 -5 27 -11 43 -9 25 -11 26 -21 10 -5 -10 -7 -25 -4 -33 7 -18
-10 -54 -24 -54 -6 0 -10 14 -10 30 0 19 -5 30 -14 30 -19 0 -29 -31 -20 -64
5 -22 3 -26 -14 -26 -55 0 -35 141 22 156 13 3 36 19 52 35 15 16 35 29 44 29
10 0 34 14 55 30 21 17 50 33 64 36 14 2 40 9 56 15 17 6 50 16 75 21 25 6 54
17 66 25 19 12 30 12 82 0 47 -11 66 -11 88 -2 18 7 60 10 109 8 74 -4 85 -2
140 26 70 36 77 37 111 14z"/>
<path d="M4082 4255 c-7 -8 -24 -15 -38 -15 -14 0 -45 -13 -69 -30 -31 -21
-55 -30 -84 -30 -30 0 -43 -5 -51 -20 -6 -11 -20 -20 -30 -20 -11 0 -20 -4
-20 -10 0 -5 -15 -10 -34 -10 -39 0 -96 -18 -96 -31 0 -5 -7 -9 -15 -9 -8 0
-15 -4 -15 -8 0 -5 -25 -16 -55 -26 -30 -9 -68 -28 -84 -41 -16 -14 -37 -25
-47 -25 -32 -1 -104 -38 -174 -90 -37 -28 -75 -50 -84 -50 -9 0 -26 -9 -38
-20 -12 -11 -38 -23 -57 -26 -20 -4 -38 -10 -41 -13 -10 -12 -69 -51 -78 -51
-5 0 -25 -12 -44 -27 -19 -16 -47 -37 -61 -48 -15 -11 -27 -24 -27 -30 -1 -11
-85 -65 -103 -65 -7 0 -27 -9 -45 -20 -18 -11 -39 -20 -47 -20 -26 0 -53 -22
-48 -40 3 -10 17 -20 33 -23 22 -5 31 -15 40 -44 7 -21 18 -45 25 -53 7 -8 15
-26 18 -40 5 -22 2 -28 -23 -37 -16 -6 -38 -26 -50 -44 -38 -62 -11 -151 63
-210 35 -27 51 -15 17 13 -14 11 -23 26 -22 32 2 6 0 8 -3 4 -4 -4 -16 4 -27
17 -14 18 -18 34 -14 62 5 32 4 34 -4 13 -8 -21 -9 -19 -5 14 2 22 12 47 22
55 16 15 16 15 2 -4 -13 -18 -13 -19 3 -6 10 7 15 17 12 22 -3 5 6 13 20 19
34 12 34 48 1 115 -13 27 -26 58 -29 68 -3 10 -15 17 -30 17 -14 0 -28 5 -31
10 -4 6 6 10 22 10 15 0 39 9 53 20 14 11 34 20 45 20 11 0 31 9 45 20 14 11
31 20 37 20 7 0 38 27 69 59 31 33 73 67 93 76 20 9 51 27 70 40 19 14 43 25
55 25 12 0 32 9 46 20 14 11 33 20 42 20 9 0 20 5 23 11 5 6 28 -9 59 -39 28
-28 63 -62 79 -76 15 -14 27 -34 27 -45 0 -11 13 -29 29 -40 16 -12 31 -34 34
-50 9 -42 41 -71 77 -71 17 0 47 -8 68 -18 31 -15 60 -18 180 -16 92 1 148 6
157 14 8 7 26 9 44 5 18 -4 40 -1 58 8 17 9 77 17 155 21 128 6 128 6 185 -23
81 -41 110 -80 82 -108 -6 -6 -9 -26 -7 -44 2 -28 -2 -38 -27 -57 -66 -52
-175 -91 -201 -74 -6 4 -16 23 -24 42 -20 48 -102 127 -157 151 -71 30 -218
22 -255 -14 -7 -7 -30 -26 -52 -42 -21 -16 -52 -53 -68 -82 -31 -55 -57 -70
-102 -59 -15 4 -25 15 -29 34 -9 46 -93 123 -165 151 -58 23 -190 29 -251 11
-42 -12 -105 -71 -132 -122 -21 -42 -33 -45 -104 -27 -32 8 -52 21 -72 48 -15
20 -31 38 -35 39 -4 2 -8 8 -8 14 0 5 -8 22 -19 36 -10 15 -21 43 -24 62 -5
34 -3 36 39 54 25 10 49 26 54 35 7 13 -7 10 -53 -14 -61 -32 -62 -33 -59 -70
2 -22 11 -50 21 -64 10 -14 22 -36 25 -49 4 -12 15 -26 24 -31 9 -5 24 -24 34
-43 36 -73 58 -125 58 -137 0 -20 32 -83 38 -76 10 9 42 -83 36 -102 -4 -13
-3 -15 4 -5 6 10 11 0 15 -32 4 -25 18 -73 32 -105 14 -33 25 -71 25 -84 0
-13 12 -56 26 -95 14 -40 24 -82 21 -94 -3 -17 -6 -12 -12 19 -10 57 -26 69
-72 55 -28 -9 -42 -8 -63 3 -32 17 -33 19 -50 110 -7 39 -21 97 -31 130 -9 33
-21 75 -24 92 -7 33 -41 67 -57 57 -5 -3 2 -16 17 -29 14 -13 25 -30 25 -38 0
-8 10 -43 21 -78 12 -35 23 -77 25 -94 7 -67 21 -125 34 -140 27 -32 66 -45
99 -34 33 12 67 -3 55 -22 -3 -5 6 -45 20 -89 14 -43 26 -90 26 -104 0 -14 4
-27 9 -31 5 -3 17 -31 26 -63 23 -84 111 -269 148 -309 11 -12 35 -27 53 -33
l34 -12 0 -127 c0 -135 -5 -151 -47 -151 -13 0 -43 -9 -65 -20 -23 -11 -50
-20 -61 -20 -10 0 -27 -5 -38 -10 -24 -13 -165 -50 -191 -50 -11 0 -52 -11
-91 -24 -40 -13 -87 -27 -104 -31 -51 -10 -50 -12 61 -96 21 -16 49 -29 62
-29 12 0 35 -5 51 -12 17 -7 138 -14 313 -18 157 -5 346 -14 421 -21 130 -12
273 -7 444 16 22 3 85 10 140 16 216 23 311 38 345 52 31 13 33 15 15 22 -11
3 -28 11 -37 16 -43 22 -55 28 -93 42 -84 31 -171 59 -197 64 -15 3 -33 11
-39 19 -6 8 -24 14 -39 14 -15 0 -39 9 -53 20 -14 11 -40 20 -60 20 -20 0 -38
4 -41 9 -3 5 -23 11 -43 15 -21 3 -54 8 -74 11 l-35 7 -2 96 c-4 142 2 165 47
195 30 20 49 47 84 119 25 51 47 104 50 118 3 14 14 52 26 85 11 33 25 80 32
105 6 25 18 64 26 87 8 22 12 50 9 61 -4 11 0 37 8 57 14 32 18 35 43 28 41
-10 64 -6 92 15 37 27 53 66 57 136 2 58 8 88 34 199 11 44 8 69 -5 55 -10
-10 -33 -138 -44 -243 -7 -74 -29 -128 -57 -139 -14 -5 -15 -4 -4 9 11 13 9
13 -22 1 -19 -8 -45 -12 -58 -9 -16 4 -27 0 -40 -17 -19 -25 -20 -39 10 130 5
30 14 71 19 90 5 19 23 83 39 141 15 59 35 114 44 123 12 11 15 26 11 51 -5
28 -2 35 11 35 22 0 112 46 154 78 l34 26 19 -25 c10 -13 19 -36 19 -50 0 -38
-20 -90 -33 -82 -5 3 -7 1 -4 -5 4 -5 -8 -22 -25 -36 -18 -15 -39 -31 -45 -37
-15 -11 -17 -29 -5 -29 12 0 103 93 118 122 32 56 9 133 -46 161 -18 10 -24
19 -22 37 2 14 8 29 13 35 5 5 9 17 9 27 0 37 31 32 71 -12 38 -41 41 -43 85
-36 26 3 64 6 85 6 34 0 43 5 69 42 38 52 38 68 0 68 -16 0 -51 10 -77 21 -90
40 -188 92 -208 110 -11 10 -33 23 -50 29 -46 18 -341 25 -427 11 -107 -18
-258 5 -332 49 -73 45 -118 89 -161 160 -20 33 -44 64 -54 69 -32 18 -11 -50
34 -109 58 -75 131 -134 212 -172 64 -29 76 -32 211 -36 79 -2 192 1 250 7 95
10 117 9 193 -8 47 -10 103 -30 125 -44 21 -13 57 -31 79 -37 22 -7 56 -23 76
-36 20 -13 39 -20 42 -18 11 11 49 -8 57 -29 7 -18 9 -18 9 -4 1 9 8 17 17 17
13 0 13 -4 -3 -30 -19 -33 -26 -36 -120 -45 -62 -6 -63 -5 -98 30 -27 26 -44
35 -70 35 -19 0 -38 6 -42 14 -4 7 -36 28 -71 46 l-64 33 -127 -5 c-92 -4
-136 -10 -160 -23 -19 -9 -43 -14 -56 -11 -13 3 -36 1 -52 -5 -40 -16 -278
-18 -333 -3 -25 7 -58 16 -75 21 -22 6 -36 20 -51 52 -12 25 -30 52 -41 61
-11 8 -23 28 -27 43 -3 15 -16 35 -28 45 -12 9 -46 40 -76 67 l-53 50 63 46
c74 53 108 69 147 69 15 0 36 9 45 19 20 22 98 61 122 61 9 0 33 14 54 30 27
21 49 30 75 30 25 0 52 10 83 31 25 17 67 34 92 38 26 4 60 17 76 28 16 11 44
24 61 28 18 3 35 11 38 16 9 14 45 11 45 -4 0 -38 75 -58 216 -57 36 1 58 -5
76 -20 15 -11 39 -20 55 -20 16 0 44 -11 63 -25 19 -14 47 -25 62 -25 16 0 43
-7 60 -16 21 -11 46 -15 75 -11 48 5 50 2 26 -32 l-16 -24 -8 21 c-6 16 -17
22 -36 22 -16 0 -38 7 -50 15 -12 9 -36 14 -52 13 -20 -1 -38 5 -54 20 -15 15
-36 22 -61 22 -26 0 -48 8 -68 25 -23 20 -41 25 -81 25 -136 1 -172 6 -207 28
-43 27 -63 27 -117 2 -46 -21 -49 -25 -30 -44 32 -32 69 -46 152 -55 148 -17
195 -28 300 -66 55 -20 124 -45 153 -56 74 -27 142 -36 142 -18 0 8 13 27 29
42 56 52 51 99 -8 79 -25 -9 -39 -7 -74 8 -23 11 -55 20 -71 20 -15 0 -42 11
-59 26 -21 18 -37 24 -54 19 -16 -4 -34 2 -57 20 -26 19 -46 26 -82 26 -179 0
-209 6 -199 38 4 12 -3 21 -20 29 -33 15 -47 15 -63 -3z m60 -90 c33 -22 48
-25 145 -27 95 -1 112 -4 143 -25 19 -12 49 -23 66 -23 17 0 42 -8 55 -19 13
-10 40 -22 59 -25 66 -14 100 -28 100 -42 0 -23 -52 -17 -132 15 -167 65 -279
94 -393 100 -90 5 -117 10 -145 28 -24 15 -30 23 -20 27 8 2 22 7 30 9 32 11
57 6 92 -18z m-129 -780 c71 -29 134 -86 164 -150 14 -31 25 -41 48 -45 42 -7
49 -47 9 -52 -22 -2 -29 -11 -40 -46 -42 -143 -144 -232 -266 -232 -83 0 -216
82 -255 157 -7 13 -15 41 -19 61 -4 20 -11 43 -17 50 -11 14 -103 16 -112 2
-3 -5 -14 -41 -24 -79 -21 -79 -44 -116 -102 -162 -37 -29 -50 -33 -121 -37
-68 -4 -83 -2 -106 15 -15 11 -39 24 -52 28 -42 13 -130 114 -130 150 0 11 -7
33 -15 49 -8 15 -15 38 -15 51 0 60 69 180 121 212 45 27 146 45 200 37 90
-14 189 -82 223 -154 l21 -45 59 0 c59 0 59 0 80 40 26 50 123 144 156 151 14
3 32 9 40 14 28 16 89 10 153 -15z m213 -338 c-8 -42 -26 -112 -40 -156 -24
-76 -42 -159 -53 -244 -3 -20 -9 -40 -14 -43 -5 -3 -9 -26 -9 -51 0 -25 -7
-66 -15 -92 -8 -25 -31 -100 -51 -166 -61 -204 -100 -282 -155 -311 -39 -19
-146 -29 -304 -27 -169 2 -261 16 -291 44 -22 21 -84 134 -84 154 0 5 -7 16
-16 26 -9 10 -24 48 -34 86 -10 37 -25 82 -33 98 -8 17 -20 53 -26 80 -22 107
-39 175 -60 229 -11 31 -21 67 -21 80 0 13 -9 43 -20 68 -10 24 -22 64 -25 88
-4 25 -15 63 -25 86 -10 22 -22 57 -26 78 -6 33 -4 38 12 34 12 -2 23 -20 34
-56 17 -58 101 -172 128 -172 10 0 35 -12 57 -25 45 -28 136 -34 196 -13 44
15 105 63 129 103 21 33 47 106 52 145 3 22 8 25 47 25 45 0 45 0 56 -45 23
-91 68 -141 174 -196 61 -32 75 -35 125 -31 92 8 151 35 194 87 50 60 65 86
82 140 16 53 21 63 26 57 2 -2 -2 -38 -10 -80z m-906 -1085 c14 -5 95 -15 180
-21 122 -9 180 -8 272 2 95 10 115 10 106 0 -12 -15 -13 -282 -1 -294 5 -4 22
-9 38 -12 21 -3 15 -4 -19 -6 -38 -1 -47 2 -43 13 5 11 -3 11 -36 -3 -35 -15
-68 -17 -197 -15 -149 2 -217 8 -228 18 -10 11 -9 271 2 278 6 4 7 11 2 15 -4
4 -16 -3 -27 -16 -18 -23 -19 -23 -19 -2 0 14 -11 25 -32 34 -18 8 -42 25 -53
38 l-20 24 25 -22 c14 -12 36 -26 50 -31z m72 -366 c37 -16 289 -24 320 -11
10 4 31 2 48 -3 23 -8 36 -8 57 3 16 8 48 15 73 15 50 0 213 -39 218 -52 2 -4
10 -8 18 -8 8 0 14 -4 14 -10 0 -5 15 -10 34 -10 19 0 38 -4 41 -10 3 -5 14
-10 24 -10 10 0 32 -7 47 -15 16 -8 36 -15 45 -15 9 0 30 -7 45 -15 16 -8 36
-15 44 -15 8 -1 26 -7 39 -14 23 -13 23 -13 -15 -19 -22 -4 -64 -7 -94 -7 -30
0 -91 -9 -135 -21 -60 -15 -125 -22 -262 -26 -224 -7 -798 13 -947 32 -105 14
-226 49 -226 65 0 11 131 50 170 50 19 0 44 7 54 15 11 8 37 15 57 15 21 0 50
5 66 12 83 34 181 67 204 67 15 1 42 -5 61 -13z"/>
<path d="M3875 3370 c-11 -4 -40 -15 -65 -24 -131 -47 -175 -239 -83 -353 44
-53 124 -98 188 -106 42 -5 60 -1 111 23 90 42 144 124 144 220 0 71 -17 109
-77 171 -48 49 -63 58 -111 68 -64 13 -79 13 -107 1z m119 -21 c47 -13 128
-90 144 -138 16 -46 15 -121 -2 -162 -23 -56 -55 -88 -117 -119 -77 -39 -123
-39 -180 0 -24 16 -49 30 -54 30 -21 0 -74 83 -84 132 -23 104 38 212 139 247
65 22 102 25 154 10z"/>
<path d="M3869 3191 c-17 -18 -29 -40 -29 -56 0 -35 50 -85 85 -85 16 0 38 12
56 29 17 18 29 40 29 56 0 16 -12 38 -29 56 -18 17 -40 29 -56 29 -16 0 -38
-12 -56 -29z"/>
<path d="M3178 3346 c-58 -16 -136 -78 -155 -125 -18 -43 -12 -136 11 -193 52
-124 202 -183 322 -129 60 27 123 113 131 179 17 145 -86 283 -211 281 -28 0
-72 -6 -98 -13z m170 -25 c76 -39 122 -117 122 -207 0 -51 -12 -86 -47 -137
-85 -124 -308 -95 -367 48 -20 47 -30 125 -22 168 6 31 45 87 61 87 4 0 21 11
38 24 51 39 157 47 215 17z"/>
<path d="M3210 3197 c-32 -16 -52 -59 -44 -91 22 -91 158 -75 158 19 0 60 -62
99 -114 72z"/>
<path d="M3430 2786 c-31 -38 115 -86 217 -72 54 7 103 32 103 52 0 21 -27 29
-47 13 -24 -20 -189 -17 -230 5 -26 13 -33 13 -43 2z"/>
<path d="M3955 2760 c-3 -5 -4 -18 -1 -28 7 -21 -42 -65 -111 -100 -52 -27
-193 -52 -253 -46 -158 16 -228 28 -247 40 -12 8 -27 14 -34 14 -24 0 -64 43
-69 73 -4 24 -11 33 -27 35 -15 2 -23 -2 -23 -11 0 -8 -10 -34 -22 -56 -25
-48 -15 -72 20 -50 21 13 31 10 82 -20 90 -53 245 -79 405 -67 105 7 164 27
237 77 55 37 63 40 84 28 36 -19 41 -4 18 59 -20 54 -44 76 -59 52z"/>
<path d="M3422 2259 c5 -40 49 -54 184 -57 102 -3 124 -1 138 13 36 37 23 42
-140 49 -86 4 -163 10 -171 13 -11 4 -14 0 -11 -18z"/>
<path d="M3870 4135 c-14 -7 -27 -24 -30 -36 -5 -21 -12 -23 -75 -26 -50 -2
-74 -7 -87 -20 -17 -18 -17 -20 2 -58 14 -29 34 -47 67 -65 27 -14 57 -33 68
-42 43 -36 107 -49 290 -59 163 -8 292 -28 401 -60 17 -6 62 -28 100 -51 87
-53 129 -55 199 -12 67 41 71 64 13 64 -24 0 -55 6 -69 14 -14 7 -39 16 -55
20 -33 8 -154 51 -199 71 -109 49 -164 58 -310 53 -128 -5 -145 -4 -192 16
-52 21 -153 99 -153 118 0 5 24 -11 53 -36 89 -76 118 -84 297 -83 136 0 164
-3 225 -23 39 -13 75 -26 80 -30 6 -4 60 -24 121 -45 l111 -39 29 27 c16 15
32 27 36 27 9 0 38 54 38 69 0 7 -25 9 -72 5 -75 -6 -179 13 -223 40 -65 40
-241 84 -408 102 -69 7 -115 24 -141 53 -22 25 -78 28 -116 6z m92 -34 c27
-49 70 -64 198 -71 118 -7 244 -39 385 -97 32 -14 89 -28 125 -32 56 -5 65 -9
65 -26 0 -17 -6 -20 -35 -17 -19 1 -64 16 -100 31 -36 16 -115 45 -177 65
-108 34 -114 35 -190 26 -134 -17 -236 6 -292 66 -18 19 -44 37 -57 40 -42 11
-19 44 31 44 23 0 34 -7 47 -29z m-132 -58 c0 -9 24 -40 53 -67 39 -37 72 -57
122 -75 63 -22 77 -23 192 -17 121 7 126 6 221 -25 53 -17 127 -44 163 -60 36
-16 71 -29 77 -29 35 0 92 -26 92 -42 0 -31 -44 -32 -97 -2 -110 62 -156 84
-177 84 -12 0 -56 12 -97 26 -67 24 -92 27 -274 33 l-200 6 -75 47 c-41 26
-92 62 -112 80 -32 29 -35 34 -20 46 9 6 42 12 74 12 48 0 58 -3 58 -17z"/>
<path d="M3571 4000 c-73 -26 -78 -33 -58 -72 57 -110 93 -152 172 -203 90
-58 103 -60 405 -57 151 2 297 0 323 -3 30 -5 66 -20 97 -41 27 -19 53 -34 58
-34 5 0 25 -11 45 -24 55 -37 100 -47 129 -28 31 20 78 64 78 72 0 4 -19 12
-42 19 -57 16 -93 31 -142 58 -97 53 -146 72 -231 92 -117 26 -148 30 -341 40
-142 7 -167 11 -208 32 -119 62 -164 94 -187 131 -13 21 -28 38 -34 38 -5 -1
-34 -10 -64 -20z m87 -74 c15 -14 70 -51 122 -83 l95 -58 205 -6 c153 -5 216
-11 250 -24 25 -9 73 -23 107 -31 35 -8 84 -28 110 -44 25 -16 62 -34 82 -41
65 -20 101 -40 101 -56 0 -8 -6 -13 -12 -10 -7 3 -46 20 -86 36 -41 17 -86 40
-101 51 -34 23 -193 59 -276 61 -33 1 -100 -4 -150 -11 -49 -6 -133 -10 -185
-7 -126 5 -191 31 -267 106 -52 51 -133 141 -133 148 0 6 47 27 75 33 26 5 30
3 33 -17 2 -12 15 -34 30 -47z"/>
<path d="M356 2853 c-3 -16 -8 -59 -12 -98 -3 -38 -12 -88 -19 -110 -7 -22
-16 -65 -20 -96 l-6 -57 68 -11 c37 -7 93 -21 123 -31 30 -10 128 -26 217 -35
90 -9 177 -21 195 -26 18 -5 56 -9 84 -9 l51 0 7 63 c4 34 10 88 12 120 3 31
14 91 23 132 13 54 15 75 6 78 -6 3 -63 10 -126 17 -138 14 -205 25 -359 60
-72 16 -162 30 -202 30 -32 0 -37 -3 -42 -27z m189 -33 c39 -6 110 -19 159
-30 50 -11 116 -20 149 -20 57 0 145 -16 159 -29 10 -9 -9 -222 -24 -279 -9
-37 -14 -43 -32 -39 -12 3 -91 12 -176 21 -85 9 -182 23 -215 32 -33 8 -93 23
-133 32 l-74 17 6 30 c2 16 12 82 21 145 22 151 19 144 58 136 17 -4 64 -11
102 -16z"/>
<path d="M287 2419 c-3 -30 -11 -74 -17 -99 -6 -25 -12 -70 -14 -100 -1 -30
-6 -65 -10 -77 -7 -22 -5 -23 61 -23 40 0 127 -13 208 -31 77 -17 167 -35 200
-39 33 -5 78 -16 100 -24 22 -8 56 -15 75 -16 19 0 51 -4 71 -9 l37 -8 6 46
c4 25 6 52 6 59 -2 37 0 55 14 137 24 142 26 135 -44 135 -33 0 -95 6 -137 14
-43 8 -130 19 -193 25 -63 6 -144 20 -180 31 -35 12 -90 23 -121 27 l-56 6 -6
-54z m199 -19 c36 -13 144 -31 279 -46 121 -14 220 -26 221 -27 1 -1 -7 -63
-17 -137 -10 -74 -18 -138 -18 -142 -1 -13 -35 -9 -82 8 -24 8 -102 26 -174
39 -71 13 -176 33 -233 45 -56 11 -116 20 -132 20 -17 0 -30 1 -30 3 0 40 25
183 38 214 16 39 20 43 53 43 20 0 62 -9 95 -20z"/>
<path d="M235 2074 c-3 -20 -9 -77 -11 -127 -3 -50 -11 -102 -19 -116 -16 -29
-35 -155 -27 -183 4 -16 17 -18 96 -20 189 -3 285 -6 421 -12 77 -4 167 -3
200 1 l59 8 7 40 c4 22 9 72 12 110 4 39 9 100 13 136 8 76 11 73 -86 84 -30
3 -77 13 -104 22 -27 8 -74 19 -105 23 -31 4 -119 22 -196 39 -77 17 -165 31
-196 31 l-57 0 -7 -36z m234 -30 c69 -14 177 -34 239 -44 62 -11 126 -27 142
-35 16 -8 38 -15 50 -15 18 0 20 -6 20 -52 0 -29 -7 -94 -17 -145 l-17 -91
-103 -7 c-57 -4 -147 -5 -200 -1 -54 3 -153 9 -221 12 l-123 7 7 46 c4 25 11
57 16 71 6 14 13 77 17 141 5 64 11 121 15 128 10 16 33 14 175 -15z"/>
<path d="M170 1616 c0 -1 -5 -29 -11 -62 -7 -32 -13 -97 -14 -144 -1 -47 -7
-113 -14 -148 -17 -80 -7 -92 43 -58 20 14 53 30 71 36 19 6 35 16 35 21 0 5
10 9 23 9 12 0 36 7 52 16 17 9 54 20 82 24 29 5 99 32 155 59 56 28 108 51
117 51 8 0 44 11 80 25 152 59 143 52 157 128 7 42 7 42 -80 28 -27 -5 -113
-4 -190 1 -138 8 -506 19 -506 14z m420 -62 c30 -4 108 -1 173 6 65 7 121 10
124 7 3 -4 3 -17 0 -29 -7 -26 -38 -39 -227 -100 -52 -17 -115 -44 -139 -61
-34 -23 -60 -32 -115 -37 -74 -8 -123 -25 -187 -66 -44 -27 -48 -21 -25 42 9
27 11 55 6 89 -4 28 -3 76 2 109 l10 58 162 -6 c88 -3 186 -9 216 -12z"/>
<path d="M840 1451 c-41 -15 -85 -33 -97 -39 -12 -7 -29 -12 -39 -12 -9 0 -53
-18 -98 -39 -112 -55 -154 -71 -185 -71 -14 -1 -37 -7 -51 -15 -14 -8 -34 -14
-44 -15 -11 0 -27 -6 -35 -14 -9 -7 -36 -21 -61 -30 -25 -10 -56 -26 -69 -37
-23 -19 -24 -23 -13 -72 21 -104 34 -152 43 -162 5 -5 9 -17 9 -26 0 -22 76
-100 115 -118 81 -37 150 -61 180 -61 33 0 3 18 -53 33 -28 7 -57 18 -62 25
-7 9 -7 9 2 2 7 -5 29 -10 49 -10 21 0 41 -4 44 -10 3 -5 17 -10 29 -10 18 0
28 10 41 38 10 20 46 64 80 98 76 74 164 200 209 303 19 42 54 112 78 155 41
73 43 81 29 98 -18 21 -9 22 -101 -11z m40 -60 c0 -5 -16 -37 -35 -72 -20 -34
-50 -96 -67 -136 -39 -95 -113 -208 -169 -258 -44 -39 -95 -98 -101 -116 -4
-11 -108 10 -108 22 0 5 -17 11 -37 15 -57 11 -107 66 -123 134 -7 30 -18 64
-25 75 -6 11 -15 37 -18 58 -5 35 -3 39 31 61 79 49 126 67 198 76 60 6 87 15
133 43 31 20 88 45 127 56 38 11 87 27 109 35 45 17 85 20 85 7z"/>
<path d="M2575 1443 c-33 -14 -73 -27 -90 -29 -31 -3 -82 -11 -122 -20 -29 -6
-31 -49 -3 -84 11 -14 20 -29 20 -33 0 -5 9 -21 19 -36 11 -15 23 -40 27 -55
3 -15 39 -62 79 -104 77 -82 86 -86 245 -129 58 -16 111 -18 505 -15 279 2
457 7 485 15 29 7 214 11 530 12 285 2 512 7 550 13 36 6 99 16 140 22 124 20
180 31 180 36 0 17 -31 74 -41 74 -6 0 -23 11 -38 25 -88 85 -112 105 -124
105 -8 0 -22 9 -32 20 -10 11 -26 20 -35 20 -9 0 -31 11 -50 25 -19 14 -39 25
-46 25 -7 0 -25 11 -41 23 -24 20 -89 57 -100 57 -1 0 -3 -4 -3 -10 0 -5 19
-19 43 -31 36 -19 110 -70 82 -57 -96 43 -135 65 -135 76 0 10 -6 12 -17 7
-42 -17 -89 -25 -283 -49 -389 -49 -486 -54 -744 -35 -127 9 -319 17 -426 17
-152 0 -205 4 -239 16 -24 9 -52 16 -63 16 -11 0 -36 12 -54 28 -19 15 -49 39
-68 55 -41 33 -71 33 -151 0z m117 -46 c42 -42 165 -85 291 -102 286 -37 1114
-44 1227 -10 30 9 108 20 172 25 65 4 121 11 125 13 5 3 38 8 75 12 54 6 74 3
100 -10 18 -10 49 -26 69 -36 19 -10 41 -25 49 -33 7 -9 21 -16 31 -16 11 0
28 -9 38 -19 10 -10 30 -22 42 -26 13 -4 36 -20 51 -34 15 -14 36 -35 48 -46
12 -11 31 -30 43 -42 l22 -23 -26 0 c-14 0 -48 -7 -75 -15 -103 -30 -249 -38
-704 -40 -312 -2 -494 -7 -580 -17 -176 -19 -845 -8 -958 17 -117 26 -171 61
-240 158 -57 79 -112 175 -112 197 0 5 15 10 33 9 44 -1 118 11 142 25 72 39
108 42 137 13z"/>
<path d="M956 1418 c-35 -62 -116 -225 -129 -259 -21 -59 -105 -175 -175 -246
-38 -37 -83 -94 -100 -126 l-32 -58 57 3 c32 1 65 -2 73 -7 8 -5 58 -15 110
-22 52 -7 136 -18 185 -26 50 -8 93 -12 97 -8 3 3 8 42 11 86 8 122 23 223 45
295 11 36 30 103 42 150 40 160 47 185 57 210 6 14 10 26 9 26 0 1 -53 4 -116
8 l-115 7 -19 -33z m155 -21 c29 5 32 4 25 -13 -5 -10 -12 -53 -18 -94 -5 -41
-20 -101 -33 -135 -30 -75 -44 -137 -45 -195 -1 -45 -33 -226 -42 -235 -2 -3
-36 0 -74 6 -38 5 -109 16 -159 23 -49 7 -105 20 -123 28 l-33 15 56 54 c73
69 150 183 192 283 18 43 57 121 86 172 54 96 75 112 119 92 9 -4 31 -5 49 -1z"/>
<path d="M1207 1397 c-9 -23 -17 -53 -17 -65 0 -13 -9 -44 -19 -70 -11 -26
-27 -82 -35 -126 -9 -43 -23 -99 -32 -125 -17 -47 -30 -139 -41 -272 l-5 -76
56 -7 c30 -4 59 -5 64 -2 4 2 64 -2 132 -10 69 -8 156 -16 194 -18 l68 -3 -2
196 c-2 201 10 396 27 441 6 14 13 55 17 91 l6 66 -117 7 c-65 4 -154 9 -198
11 l-80 4 -18 -42z m210 -36 c51 -6 108 -7 128 -4 40 6 40 6 19 -62 -11 -36
-18 -127 -25 -324 -5 -151 -12 -277 -15 -280 -11 -11 -176 0 -372 25 -53 7
-54 7 -49 38 2 17 10 67 16 111 6 44 16 109 21 145 5 36 21 92 34 125 14 33
28 85 31 115 10 89 24 122 46 115 10 -4 19 -2 19 4 0 6 12 8 28 6 15 -3 68 -9
119 -14z"/>
<path d="M1636 1398 c-3 -17 -6 -48 -6 -70 0 -22 -5 -49 -12 -61 -16 -29 -28
-183 -34 -438 l-5 -207 48 -7 c26 -3 82 -9 123 -12 41 -3 95 -7 120 -10 25 -2
69 -5 98 -7 l53 -2 -5 85 c-3 47 -10 178 -16 291 -6 113 -14 255 -18 315 l-7
110 -55 7 c-117 16 -146 19 -189 19 -24 0 -54 4 -66 9 -20 8 -24 5 -29 -22z
m215 -53 l76 -6 7 -61 c3 -34 6 -105 6 -159 0 -54 9 -163 21 -243 11 -80 19
-167 17 -193 -3 -45 -5 -48 -28 -45 -38 5 -106 10 -210 17 -52 3 -101 8 -109
10 -11 4 -12 23 -7 93 4 48 10 181 15 297 4 121 13 225 20 245 7 19 15 41 17
48 3 10 17 12 52 8 26 -3 81 -8 123 -11z"/>
<path d="M2080 1394 c-8 -2 -33 -6 -54 -9 l-39 -6 7 -117 c3 -64 11 -135 16
-157 5 -22 10 -103 11 -180 1 -77 4 -180 8 -229 l6 -90 65 3 c76 2 102 23 120
94 29 112 44 150 51 131 4 -10 5 -29 2 -41 -2 -11 0 -29 5 -40 5 -10 12 -74
15 -143 3 -69 3 -115 1 -104 -7 30 -31 48 -81 63 -57 16 -183 24 -183 11 0 -6
17 -10 37 -10 47 0 163 -20 186 -32 11 -6 17 -20 17 -43 0 -19 1 -35 3 -35 18
-3 587 -23 657 -24 52 0 145 5 205 11 67 7 219 10 385 7 257 -5 357 -1 675 27
159 14 698 20 666 8 -14 -5 -128 -9 -255 -8 -214 2 -398 -7 -621 -31 -49 -5
-238 -10 -420 -9 -181 0 -390 -5 -464 -11 -99 -9 -215 -9 -450 -1 -174 6 -331
14 -349 17 l-33 5 7 -48 c4 -26 8 -109 7 -184 l0 -136 104 -13 c77 -10 152
-11 291 -4 103 5 284 7 402 6 136 -2 233 1 265 8 35 8 231 11 665 9 788 -4
756 -4 818 5 33 6 52 5 52 -1 0 -20 -143 -24 -700 -21 -311 1 -587 2 -615 1
-27 -1 -192 -4 -365 -6 -173 -2 -367 -10 -430 -17 -90 -10 -150 -10 -275 -1
-226 16 -215 17 -215 -19 0 -17 5 -30 10 -30 6 0 10 5 10 11 0 8 5 7 16 -2 12
-9 17 -10 23 -1 5 9 47 9 171 1 113 -7 228 -7 370 0 166 9 999 12 1765 7 77
-1 161 3 188 8 40 7 47 6 47 -8 0 -9 4 -16 9 -16 10 0 21 285 21 544 -1 109 1
201 4 204 4 3 7 -73 8 -169 4 -271 4 -305 -5 -446 -8 -118 -7 -133 7 -133 9 0
16 6 16 13 0 17 542 16 548 -1 8 -24 22 -11 23 21 l1 32 7 -29 c3 -16 12 -31
20 -34 10 -3 11 2 6 19 -4 13 -9 32 -12 43 -5 17 -12 18 -67 12 -180 -19 -249
-25 -326 -27 -127 -3 -190 0 -190 9 0 4 62 8 138 9 131 1 333 16 395 29 26 5
28 9 23 38 -4 17 -10 51 -15 76 -4 25 -15 59 -24 75 -9 17 -17 39 -17 50 0 11
-7 29 -15 39 -8 11 -15 33 -15 49 0 16 -10 46 -21 67 l-21 38 -57 -23 c-94
-38 -189 -55 -286 -53 l-90 1 100 7 c105 7 228 35 292 66 32 16 38 23 35 48
-2 15 -12 44 -23 64 -10 20 -19 41 -19 47 0 10 -41 100 -66 145 -8 14 -32 62
-54 108 -22 45 -44 82 -50 82 -14 0 -13 -3 14 -55 14 -25 30 -60 36 -79 6 -18
20 -42 30 -51 11 -10 20 -24 20 -32 0 -7 14 -40 30 -73 17 -33 30 -68 30 -78
0 -11 6 -25 14 -31 15 -13 28 -61 15 -61 -4 0 -10 13 -14 29 -3 16 -13 35 -21
42 -8 6 -14 22 -14 34 0 13 -37 96 -82 186 l-83 164 -50 -8 c-27 -4 -86 -14
-130 -22 -208 -38 -313 -42 -820 -36 -264 3 -335 1 -405 -12 -71 -13 -154 -16
-510 -13 -444 3 -472 5 -600 51 -53 19 -171 130 -196 185 -9 19 -34 65 -55
102 -22 38 -39 80 -39 97 0 17 -3 31 -7 32 -22 2 -230 4 -243 3z m176 -70 c24
-5 37 -21 74 -86 153 -276 251 -336 580 -353 214 -11 717 -8 835 5 70 8 282
14 585 15 482 2 520 4 677 43 21 6 57 13 81 16 l42 6 27 -57 c15 -32 37 -72
48 -89 11 -16 27 -50 35 -75 8 -24 20 -49 26 -56 6 -6 14 -30 18 -52 3 -23 11
-41 16 -41 19 0 10 -38 -12 -52 -43 -28 -159 -49 -250 -46 l-87 3 -5 137 c-3
76 -7 142 -11 148 -3 5 -14 10 -25 10 -23 0 -32 -34 -30 -114 1 -34 1 -80 1
-103 l-1 -43 -278 0 c-201 0 -307 -4 -383 -16 -70 -10 -235 -18 -504 -24 -220
-5 -506 -14 -635 -20 -223 -11 -725 0 -751 16 -5 3 -9 31 -10 62 0 31 -5 91
-10 132 -5 41 -9 103 -9 137 1 67 -12 86 -38 57 -24 -26 -38 -61 -52 -127 -6
-31 -15 -57 -19 -57 -5 0 -11 -13 -14 -30 -6 -29 -9 -30 -57 -30 l-50 0 0 68
c0 37 -6 108 -14 157 -8 50 -17 170 -21 269 -6 144 -4 180 7 187 15 10 171 12
214 3z m3114 -908 c0 -17 9 -44 20 -61 11 -16 20 -42 20 -56 0 -15 7 -32 15
-39 8 -7 15 -27 15 -46 0 -18 5 -45 12 -59 6 -14 8 -28 4 -32 -5 -6 -491 -22
-513 -18 -4 1 -6 105 -4 203 l3 102 103 0 c107 0 236 25 278 53 20 14 23 14
35 -1 6 -9 12 -30 12 -46z m-485 -5 c3 -16 5 -86 3 -155 l-3 -125 -45 -10
c-26 -5 -452 -10 -1015 -10 -643 -1 -996 -5 -1046 -12 -55 -8 -120 -8 -234 0
-87 6 -171 11 -186 11 l-28 0 4 96 c2 52 0 120 -4 150 -8 53 -7 55 13 49 62
-18 464 -26 831 -16 535 15 971 32 1025 41 25 4 188 8 362 9 l316 1 7 -29z"/>
</g>
</svg>
